


Note :



Actually The Movie Was Out On Saturday Evening . At That Time I Was Engaging Myself In Complete Magibazi At Park Street . That's Why I'm Two Days Late . Also I Expected This Film From Supuri . In These Days Supuri Is A Bit Slow . He Is Now In Passive & Pacific Mode . Biti Comes To A Moribund State . So I'm Forced To Upload This New Movie Released On 27.04.12 . Enjoy !



Screens : 



 
http://www.shotpix.com/images/31017757573416549121.jpg

 
http://www.shotpix.com/images/05364355552652784813.jpeg




Extra Screens :


 
http://www.shotpix.com/images/78536288886540470657.jpg

 
http://www.shotpix.com/images/80331767269472935572.jpg

 
http://www.shotpix.com/images/89649280949458221858.jpg

 
http://www.shotpix.com/images/14823308210439952341.jpg




Media Info :



Format                           : AVI
Format/Info                      : Audio Video Interleave
File size                        : 706 MiB
Duration                         : 1h 26mn
Overall bit rate                 : 1 140 Kbps
Writing application              : Encoder version Beta 4.4.5 building on 20110111

Video
ID                               : 0
Format                           : MPEG-4 Visual
Format profile                   : Simple@L1
Format settings, BVOP            : No
Format settings, QPel            : No
Format settings, GMC             : No warppoints
Format settings, Matrix          : Default (H.263)
Codec ID                         : DX50
Codec ID/Hint                    : DivX 5
Duration                         : 1h 26mn
Bit rate                         : 999 Kbps
Width                            : 640 pixels
Height                           : 480 pixels
Display aspect ratio             : 4:3
Frame rate                       : 23.976 fps
Color space                      : YUV
Chroma subsampling               : 4:2:0
Bit depth                        : 8 bits
Scan type                        : Progressive
Compression mode                 : Lossy
Bits/(Pixel*Frame)               : 0.136
Stream size                      : 619 MiB (88%)

Audio
ID                               : 1
Format                           : MPEG Audio
Format version                   : Version 1
Format profile                   : Layer 3
Codec ID                         : 55
Codec ID/Hint                    : MP3
Duration                         : 1h 26mn
Bit rate mode                    : Constant
Bit rate                         : 128 Kbps
Channel(s)                       : 2 channels
Sampling rate                    : 48.0 KHz
Compression mode                 : Lossy
Stream size                      : 79.2 MiB (11%)
Alignment                        : Aligned on interleaves
Interleave, duration             : 24 ms (0.58 video frame)
Interleave, preload duration     : 504 ms




